<svg width="16" height="16" xmlns="http://www.w3.org/2000/svg" viewBox="0 0 16 16"><path fill="#ffffff" fill-rule="evenodd" d="M11.508 1.451c.456-.455 1.195-.455 1.65 0l1.724 1.724c.456.456.456 1.194 0 1.65L13.02 6.687l-.008.008-7.219 6.89c-.132.126-.291.22-.466.273l-3.681 1.12c-.177.054-.369.006-.5-.124-.13-.131-.178-.323-.124-.5l1.115-3.666c.059-.192.166-.365.311-.504L9.651 3.31l1.857-1.858zM9.992 4.366l-6.854 6.542c-.02.02-.036.044-.044.072l-.843 2.769 2.785-.848c.025-.007.048-.02.067-.039l6.848-6.537-1.96-1.96zm2.675 1.26l1.508-1.508c.065-.065.065-.17 0-.236l-1.724-1.724c-.065-.065-.17-.065-.236 0l-1.508 1.509 1.96 1.96z" clip-rule="evenodd"></path></svg>