<svg width="16" xmlns="http://www.w3.org/2000/svg" height="12" viewBox="0 0 16 12"><path fill="#ffffff" d="M13.2 10.5H2.8c-.22 0-.4.169-.4.375v.75c0 .206.18.375.4.375h10.4c.22 0 .4-.169.4-.375v-.75c0-.206-.18-.375-.4-.375zM14.8 3c-.663 0-1.2.504-1.2 1.125 0 .166.04.321.11.464L11.9 5.606c-.385.216-.883.094-1.105-.272L8.758 1.992c.267-.206.442-.515.442-.867C9.2.504 8.663 0 8 0c-.662 0-1.2.504-1.2 1.125 0 .352.175.66.442.867L5.205 5.334c-.223.366-.723.488-1.105.272L2.293 4.59c.067-.14.11-.298.11-.464 0-.621-.538-1.125-1.2-1.125C.54 3 0 3.504 0 4.125S.537 5.25 1.2 5.25c.065 0 .13-.01.193-.019L3.2 9.75h9.6l1.807-4.519c.063.01.128.019.193.019.662 0 1.2-.504 1.2-1.125S15.463 3 14.8 3z"></path></svg>