<svg width="16" height="16" xmlns="http://www.w3.org/2000/svg" viewBox="0 0 16 16"><path fill="#ffffff" d="M6.333 10.39V5.61c0-.263.292-.422.514-.28l3.717 2.39c.204.13.204.43 0 .56l-3.717 2.39c-.222.142-.514-.017-.514-.28z"></path><path fill="#ffffff" fill-rule="evenodd" d="M8 1.667C4.502 1.667 1.667 4.502 1.667 8S4.502 14.333 8 14.333 14.333 11.498 14.333 8 11.498 1.667 8 1.667zM.667 8C.667 3.95 3.95.667 8 .667c4.05 0 7.333 3.283 7.333 7.333 0 4.05-3.283 7.333-7.333 7.333C3.95 15.333.667 12.05.667 8z" clip-rule="evenodd"></path></svg>