<svg width="16" xmlns="http://www.w3.org/2000/svg" height="16" viewBox="0 0 16 16"><path fill="#ffffff" fill-rule="evenodd" d="M8 1.667c-2.025 0-3.667 1.641-3.667 3.666 0 1.26.636 2.371 1.603 3.031-2.243.822-3.859 2.945-3.933 5.454-.009.277.209.507.485.515.276.008.506-.209.514-.485C3.082 11.158 5.29 9 8 9c2.71 0 4.918 2.157 4.998 4.848.008.276.238.493.514.485.276-.008.493-.239.485-.514-.074-2.51-1.69-4.633-3.933-5.455.967-.66 1.603-1.771 1.603-3.03 0-2.026-1.642-3.667-3.667-3.667zM5.333 5.333c0-1.472 1.194-2.666 2.667-2.666 1.473 0 2.667 1.194 2.667 2.666C10.667 6.806 9.473 8 8 8 6.527 8 5.333 6.806 5.333 5.333z" clip-rule="evenodd"></path></svg>