<svg width="14" height="14" viewBox="0 0 14 14" fill="none" xmlns="http://www.w3.org/2000/svg">
    <path d="M11.2061 1.86409C11.4624 1.6078 11.8779 1.6078 12.1342 1.86409C12.3905 2.12037 12.3905 2.53588 12.1342 2.79216L7.92692 6.99945L12.1342 11.2067C12.3905 11.463 12.3905 11.8785 12.1342 12.1348C11.8779 12.3911 11.4624 12.3911 11.2061 12.1348L6.99884 7.92752L2.79155 12.1348C2.53527 12.3911 2.11976 12.3911 1.86348 12.1348C1.60719 11.8785 1.60719 11.463 1.86348 11.2067L6.07076 6.99945L1.86348 2.79216C1.6072 2.53588 1.6072 2.12037 1.86348 1.86409C2.11976 1.6078 2.53528 1.6078 2.79156 1.86409L6.99884 6.07137L11.2061 1.86409Z" fill="#3E4042"></path>
    </svg>